<?xml version="1.0" ?><svg enable-background="new 0 0 144 144" id="Layer_1" version="1.1" viewBox="0 0 144 144" xml:space="preserve" xmlns="http://www.w3.org/2000/svg" xmlns:xlink="http://www.w3.org/1999/xlink"><g><path d="M117.5,29.1h-91c-2.5,0-4.5,2-4.5,4.5v56.8c0,2.5,2,4.5,4.5,4.5h29.6c0.4,1.4,0.7,2.8,0.9,4.2   c0.3,3,0,6-1,9H43.2c-1.7,0-3,1.4-3,3v1.6c0,1.7,1.4,3,3,3h57c1.7,0,3-1.4,3-3V111c0-1.7-1.4-3-3-3H87.5c-0.7-3.1-1-6.2-0.7-9.3   c0.1-1.3,0.3-2.6,0.7-3.9h30.1c2.5,0,4.5-2,4.5-4.5V33.5C122,31.1,120,29.1,117.5,29.1z M101.8,111v1.6c0,0.9-0.7,1.5-1.5,1.5h-57   c-0.9,0-1.5-0.7-1.5-1.5V111c0-0.9,0.7-1.5,1.5-1.5h57C101.1,109.5,101.8,110.2,101.8,111z M58.4,98.8c-0.1-1.4-0.4-2.7-0.8-4.1   h28.2c-0.3,1.2-0.5,2.5-0.6,3.8c-0.3,3.1-0.1,6.1,0.6,9.2H57.6C58.5,104.8,58.7,101.8,58.4,98.8z M120.5,90.3c0,1.6-1.3,3-3,3h-91   c-1.6,0-3-1.3-3-3V78.2c0.1,0.2,0.3,0.3,0.6,0.3h95.2c0.4,0,0.8-0.3,0.8-0.8s-0.3-0.8-0.8-0.8H24.1c-0.3,0-0.5,0.1-0.6,0.3V33.5   c0-1.6,1.3-3,3-3h91c1.6,0,3,1.3,3,3V90.3z" fill="#FFFFFF"/><path d="M51.5,38.6L30.6,59.5c-0.3,0.3-0.3,0.8,0,1.1c0.1,0.1,0.3,0.2,0.5,0.2s0.4-0.1,0.5-0.2l20.9-20.9   c0.3-0.3,0.3-0.8,0-1.1S51.8,38.3,51.5,38.6z" fill="#FFFFFF"/><path d="M86.3,41.4L58,69.7c-0.3,0.3-0.3,0.8,0,1.1c0.1,0.1,0.3,0.2,0.5,0.2s0.4-0.1,0.5-0.2l28.3-28.3   c0.3-0.3,0.3-0.8,0-1.1S86.6,41.1,86.3,41.4z" fill="#FFFFFF"/><path d="M110.3,52.6L92.7,70.2c-0.3,0.3-0.3,0.8,0,1.1c0.1,0.1,0.3,0.2,0.5,0.2s0.4-0.1,0.5-0.2l17.6-17.6   c0.3-0.3,0.3-0.8,0-1.1S110.6,52.3,110.3,52.6z" fill="#FFFFFF"/></g></svg>